<svg xmlns="http://www.w3.org/2000/svg" xmlns:xlink="http://www.w3.org/1999/xlink" width="1209.5" height="438" viewBox="0 0 1209.5 438">
  <defs>
    <clipPath id="clip-path">
      <rect id="Rectangle_1" data-name="Rectangle 1" width="40" height="14" transform="translate(589 438)" fill="#002e70"/>
    </clipPath>
  </defs>
  <g id="Group_14" data-name="Group 14" transform="translate(-284.5 -166)">
    <g id="Group_12" data-name="Group 12" transform="translate(0 0.5)">
      <g id="Group_10" data-name="Group 10">
        <g id="Group_9" data-name="Group 9">
          <g id="Group_8" data-name="Group 8">
            <g id="Group_7" data-name="Group 7">
              <g id="Group_6" data-name="Group 6">
                <g id="Group_5" data-name="Group 5">
                  <g id="Group_4" data-name="Group 4">
                    <g id="Group_3" data-name="Group 3">
                      <g id="Group_2" data-name="Group 2">
                        <g id="Group_1" data-name="Group 1">
                          <path id="Path_1" data-name="Path 1" d="M-.975-1.2,167.747-81.9,168,277-.914,276.9Z" transform="translate(359.975 270)" fill="#002e70"/>
                          <path id="Path_2" data-name="Path 2" d="M0,0,.013,55.7" transform="translate(361.5 213.5)" fill="#002e70" stroke="#002e70" stroke-width="5"/>
                          <line id="Line_1" data-name="Line 1" y1="68" x2="139" transform="translate(371.799 180.895) rotate(0.5)" fill="none" stroke="#002e70" stroke-width="5"/>
                          <line id="Line_2" data-name="Line 2" y2="341" transform="translate(346.5 252.5)" fill="none" stroke="#002e70" stroke-width="5"/>
                          <line id="Line_3" data-name="Line 3" y1="20" x2="41" transform="translate(319.5 270.5)" fill="none" stroke="#002e70" stroke-width="5"/>
                          <line id="Line_4" data-name="Line 4" x2="42" transform="translate(318.5 544.39)" fill="none" stroke="#002e70" stroke-width="5"/>
                        </g>
                        <path id="Path_3" data-name="Path 3" d="M33.486,0,24.068,4.674,6.976,13.158,0,16.62" transform="translate(526.514 174.8)" fill="#002e70" stroke="#002e70" stroke-width="5"/>
                        <line id="Line_5" data-name="Line 5" y2="26" transform="translate(525.5 165.5)" fill="none" stroke="#002e70" stroke-width="5"/>
                        <line id="Line_6" data-name="Line 6" y2="33" transform="translate(525.5 545.5)" fill="none" stroke="#002e70" stroke-width="5"/>
                        <line id="Line_7" data-name="Line 7" x2="487" transform="translate(284.5 557.5)" fill="none" stroke="#002e70" stroke-width="5"/>
                        <line id="Line_8" data-name="Line 8" y1="26" transform="translate(361.5 545.5)" fill="none" stroke="#002e70" stroke-width="5"/>
                        <line id="Line_9" data-name="Line 9" x2="220" y2="106" transform="translate(526.5 263.5)" fill="none" stroke="#002e70" stroke-width="5"/>
                        <line id="Line_10" data-name="Line 10" x2="100" y2="48" transform="translate(536.5 252.5)" fill="none" stroke="#002e70" stroke-width="5"/>
                        <line id="Line_11" data-name="Line 11" y2="273" transform="translate(689.5 306.5)" fill="none" stroke="#002e70" stroke-width="5"/>
                        <line id="Line_12" data-name="Line 12" y1="324" transform="translate(704.5 279.5)" fill="none" stroke="#002e70" stroke-width="5"/>
                        <line id="Line_13" data-name="Line 13" x2="205" transform="translate(527.5 544.5)" fill="none" stroke="#002e70" stroke-width="5"/>
                        <g id="sofa-linear" transform="translate(514.266 256.21)">
                          <path id="Path_8" data-name="Path 8" d="M106.036,500.8H153.2c7.187,0,13.013-7.1,13.013-15.862v-10.9c0-4.927-3.277-8.921-7.319-8.921s-7.319,3.994-7.319,8.921v5.353c0,1.971-1.311,3.568-2.928,3.568H110.588c-1.617,0-2.928-1.6-2.928-3.568v-5.353c0-4.927-3.277-8.921-7.319-8.921s-7.319,3.994-7.319,8.921v10.9c0,5.011-.389,10.386,2.8,13.5,2.014,1.971,7.136,2.364,10.212,2.364Z" transform="translate(0 -221.471)" fill="none" stroke="#002e70" stroke-width="3"/>
                          <path id="Path_9" data-name="Path 9" d="M241.392,254.861a57.455,57.455,0,0,0-.266-7.94c-1.092-7.078,2.958-18.074-6.056-17.942-1.335-.343-6.857,0-10.074,0H203.389c-3.217,0-9.269-.343-10.6,0-7.821.265-5.38,10.863-6.472,17.942a57.448,57.448,0,0,0-.266,7.94" transform="translate(-84.102 0)" fill="none" stroke="#002e70" stroke-width="3"/>
                          <path id="Path_10" data-name="Path 10" d="M233.479,844.654l-2.121-6.363m-40.165,5.567,2.386-5.567" transform="translate(-84.102 -557.88)" fill="none" stroke="#002e70" stroke-linecap="round" stroke-width="3"/>
                        </g>
                      </g>
                      <line id="Line_14" data-name="Line 14" x2="120" transform="translate(567.5 407.5)" fill="none" stroke="#002e70" stroke-width="5"/>
                      <line id="Line_15" data-name="Line 15" y2="26" transform="translate(628.5 379.5)" fill="none" stroke="#002e70" stroke-width="3"/>
                      <line id="Line_16" data-name="Line 16" x1="30" transform="translate(625.5 379.5)" fill="none" stroke="#002e70" stroke-width="3"/>
                      <line id="Line_17" data-name="Line 17" x1="25" transform="translate(629.5 391.5)" fill="none" stroke="#002e70" stroke-width="3"/>
                      <line id="Line_18" data-name="Line 18" y2="15" transform="translate(630.5 386.5)" fill="none" stroke="#002e70" stroke-width="2"/>
                      <path id="Path_6" data-name="Path 6" d="M0,25.684V0" transform="translate(654.5 379.5)" fill="#002e70" stroke="#002e70" stroke-width="3"/>
                      <line id="Line_20" data-name="Line 20" y2="15" transform="translate(652.5 386.5)" fill="none" stroke="#002e70" stroke-width="1"/>
                      <path id="Path_4" data-name="Path 4" d="M655.5,378.242" fill="none" stroke="#002e70" stroke-width="1"/>
                      <path id="Path_5" data-name="Path 5" d="M653.3,377.944s1.285-8.925,4.141-15.566a120.568,120.568,0,0,1,5.784-11.674l2.713,1.428-2.892,5.909-2.606,5.926-2,6.748-1.428,7.23v4.409H653.3Z" fill="#002e70"/>
                      <path id="Path_7" data-name="Path 7" d="M582.005,338.01c.011.43.006,1.455,0,2.883-.968,5.306-4.775,17.677-4.775,17.677h8.706v43.14l-6.745,3.137v.973l14.868-.361v-.612l-5.848-3.137V358.57h8.471s-4.528-14.022-4.655-17.423,0-3.138,0-3.138Z" fill="#002e70"/>
                      <line id="Line_21" data-name="Line 21" y2="28" transform="translate(611 409.5)" fill="none" stroke="#002e70" stroke-width="2"/>
                      <g id="Mask_Group_1" data-name="Mask Group 1" transform="translate(2 -3)" clip-path="url(#clip-path)">
                        <path id="Path_11" data-name="Path 11" d="M14,2.064c7.732,0,14,3.98,14,11.436A13.757,13.757,0,0,1,14,27,13.757,13.757,0,0,1,0,13.5C0,6.044,6.268,2.064,14,2.064Z" transform="translate(595 438)" fill="#002e70"/>
                      </g>
                      <path id="Path_12" data-name="Path 12" d="M587.667,521.615" fill="none" stroke="#002e70" stroke-width="1"/>
                    </g>
                  </g>
                </g>
              </g>
            </g>
          </g>
        </g>
      </g>
      <g id="Group_11" data-name="Group 11" transform="translate(-519 47)">
        <g id="Rectangle_2" data-name="Rectangle 2" transform="translate(920 259)" fill="#fff" stroke="#fff" stroke-width="1">
          <rect width="40" height="40" stroke="none"/>
          <rect x="0.5" y="0.5" width="39" height="39" fill="none"/>
        </g>
        <g id="Rectangle_3" data-name="Rectangle 3" transform="translate(966 305)" fill="#fff" stroke="#fff" stroke-width="1">
          <rect width="40" height="40" stroke="none"/>
          <rect x="0.5" y="0.5" width="39" height="39" fill="none"/>
        </g>
        <g id="Rectangle_4" data-name="Rectangle 4" transform="translate(920 305)" fill="#fff" stroke="#fff" stroke-width="1">
          <rect width="40" height="40" stroke="none"/>
          <rect x="0.5" y="0.5" width="39" height="39" fill="none"/>
        </g>
        <g id="Rectangle_5" data-name="Rectangle 5" transform="translate(966 259)" fill="#fff" stroke="#fff" stroke-width="1">
          <rect width="40" height="40" stroke="none"/>
          <rect x="0.5" y="0.5" width="39" height="39" fill="none"/>
        </g>
      </g>
    </g>
    <g id="Group_13" data-name="Group 13" transform="translate(-22 8)">
      <text id="Rubicon_" data-name="Rubicon " transform="translate(827 343)" fill="#002e70" font-size="120" font-family="Raleway" font-weight="800" letter-spacing="0.036em"><tspan x="0" y="113">RUBICON </tspan></text>
      <text id="solutions" transform="translate(827 447)" font-size="85" font-family="Poppins-Light, Poppins" font-weight="300" letter-spacing="0.016em"><tspan x="0" y="89">SOLUTIONS</tspan></text>
    </g>
  </g>
</svg>
